# AST/ASF file generated using VICON BodyLanguage
# -----------------------------------------------
:version 1.10
:name VICON
:units
  mass 1.0
  length 0.45
  angle deg
:documentation
   .ast/.asf automatically generated from VICON data using
   VICON BodyBuilder and BodyLanguage model FoxedUp or BRILLIANT.MOD
:root
   order TX TY TZ RX RY RZ
   axis XYZ
   position 0 0 0  
   orientation 0 0 0 
:bonedata
  begin
     id 1 
     name lhipjoint
     direction 0.578396 -0.714046 0.394458 
     length 2.21935 
     axis 0 0 0  XYZ
  end
  begin
     id 2 
     name lfemur
     direction 0.34202 -0.939693 0  
     length 6.39105  
     axis 0 0 20  XYZ
    dof rx ry rz
    limits (-160.0 20.0)
           (-70.0 70.0)
           (-60.0 70.0)
  end
  begin
     id 3 
     name ltibia
     direction 0.34202 -0.939693 0   
     length 6.99037   
     axis 0 0 20   XYZ
    dof rx
    limits (-10.0 170.0)
  end
  begin
     id 4 
     name lfoot
     direction 0.0582372 -0.160005 0.985397   
     length 2.06111   
     axis -90 7.62852e-016 20   XYZ
    dof rx rz
    limits (-45.0 90.0)
           (-70.0 20.0)
  end
  begin
     id 5 
     name ltoes
     direction 1.53556e-011 -4.21875e-011 1   
     length 1.04074   
     axis -90 7.62852e-016 20   XYZ
    dof rx
    limits (-90.0 20.0)
  end
  begin
     id 6 
     name rhipjoint
     direction -0.558179 -0.726269 0.40121   
     length 2.182  
     axis 0 0 0  XYZ 
  end
  begin
     id 7 
     name rfemur
     direction -0.34202 -0.939693 0   
     length 6.51172   
     axis 0 0 -20   XYZ
    dof rx ry rz
    limits (-160.0 20.0)
           (-70.0 70.0)
           (-70.0 60.0)
  end
  begin
     id 8 
     name rtibia
     direction -0.34202 -0.939693 0   
     length 7.02607   
     axis 0 0 -20   XYZ
    dof rx
    limits (-10.0 170.0)
 end
 begin
     id 9 
     name rfoot
     direction -0.0788856 -0.216737 0.973038   
     length 1.96734  
     axis -90 -7.62852e-016 -20   XYZ
    dof rx rz
    limits (-45.0 90.0)
           (-20.0 70.0)
  end
  begin
     id 10 
     name rtoes
     direction -1.53567e-011 -4.21783e-011 1   
     length 0.990825   
     axis -90 -7.62852e-016 -20   XYZ
    dof rx
    limits (-90.0 20.0)
  end
  begin
     id 11 
     name lowerback
     direction 0.00668177 0.999323 -0.0361741   
     length 1.7655   
     axis 0 0 0   XYZ
    dof rx ry rz
    limits (-20.0 45.0)
           (-30.0 30.0)
           (-30.0 30.0)
  end
  begin
     id 12 
     name upperback
     direction -0.00222086 0.99851 0.0545167   
     length 1.74912   
     axis 0 0 0   XYZ
    dof rx ry rz
    limits (-20.0 45.0)
           (-30.0 30.0)
           (-30.0 30.0)
  end
  begin
     id 13 
     name thorax
     direction -0.00733971 0.997496 0.0703443   
     length 1.75715   
     axis 0 0 0   XYZ
    dof rx ry rz
    limits (-20.0 45.0)
           (-30.0 30.0)
           (-30.0 30.0)
  end
  begin
     id 14 
     name lowerneck
     direction 0.0279797 0.994795 0.0979765   
     length 1.46939   
     axis 0 0 0   XYZ
    dof rx ry rz
    limits (-20.0 45.0)
           (-30.0 30.0)
           (-30.0 30.0)
  end
  begin
     id 15 
     name upperneck
     direction 0.00339187 0.976776 -0.214238   
     length 1.48018   
     axis 0 0 0   XYZ
    dof rx ry rz
    limits (-20.0 45.0)
           (-30.0 30.0)
           (-30.0 30.0)
  end
  begin
     id 16
     name head
     direction -0.00263506 0.996603 -0.0823096  
     length 1.4976  
     axis 0 0 0   XYZ
    dof rx ry rz
    limits (-20.0 45.0)
           (-30.0 30.0)
           (-30.0 30.0)
  end
  begin
     id 17 
     name lclavicle
     direction 0.894044 0.44508 -0.0508781  
     length 3.03024  
     axis 0 0 0   XYZ
    dof ry rz
    limits (-20.0 10.0)
           (0.0 20.0)
  end
  begin
     id 18 
     name lhumerus
     direction 1 -4.48961e-011 -2.39475e-018   
     length 4.4661   
     axis 180 -30 -90   XYZ
    dof rx ry rz
    limits (-60.0 90.0)
           (-90.0 90.0)
           (-90.0 90.0)
  end
  begin
     id 19
     name lradius
     direction 1 -4.48961e-011 9.29328e-028   
     length 3.41414   
     axis 180 -30 -90   XYZ
    dof rx
    limits (-10.0 170.0)
  end
  begin
     id 20
     name lwrist
     direction 1 -4.48985e-011 1.53461e-026   
     length 1.70707   
     axis -1.09697e-014 90 90   XYZ
    dof ry
    limits (-180.0 0.0)
 end
  begin
     id 21 
     name lhand
     direction 1 -4.48966e-011 3.06923e-026   
     length 0.328298   
     axis -1.95843e-014 90 90   XYZ
    dof rx rz
    limits (-90.0 90.0)
           (-45.0 45.0)
  end
  begin
     id 22 
     name lfingers
     direction 1 -4.48893e-011 6.13845e-026   
     length 0.264682   
     axis -3.91686e-014 90 90   XYZ
    dof rx
    limits (0.0 90.0)
  end
  begin
     id 23
     name lthumb
     direction 0.707107 -6.34876e-011 0.707107   
     length 0.380032   
     axis -90 45 2.85299e-015   XYZ
    dof rx rz
    limits (-45.0 45.0)
           (-45.0 45.0)
  end
  begin
     id 24 
     name rclavicle
     direction -0.936955 0.347862 -0.0332887   
     length 3.26927  
     axis 0 0 0   XYZ 
    dof ry rz
    limits (-10.0 20.0)
           (-20.0 0.0)
  end
  begin
     id 25 
     name rhumerus
     direction -1 -4.4896e-011 1.78637e-018  
     length 4.40431   
     axis 180 30 90   XYZ
    dof rx ry rz
    limits (-90.0 60.0)
           (-90.0 90.0)
           (-90.0 90.0)
  end
  begin
     id 26 
     name rradius
     direction -1 -4.48955e-011 9.34036e-027   
     length 3.04688   
     axis 180 30 90   XYZ
    dof rx
    limits (-10.0 170.0)
  end
  begin
     id 27 
     name rwrist
     direction -1 -4.49011e-011 1.53461e-026   
     length 1.52344   
     axis -1.09697e-014 -90 -90   XYZ
    dof ry
    limits (-180.0 0.0)
  end
  begin
     id 28
     name rhand
     direction -1 -4.48834e-011 3.06923e-026   
     length 0.500489   
     axis -1.95843e-014 -90 -90   XYZ
    dof rx rz
    limits (-90.0 90.0)
           (-45.0 45.0)
  end
  begin
     id 29
     name rfingers
     direction -1 -4.48967e-011 6.13845e-026   
     length 0.403507   
     axis -3.91686e-014 -90 -90   XYZ
    dof rx
    limits (0.0 90.0)
  end
  begin
     id 30
     name rthumb
     direction -0.707107 -6.34826e-011 0.707107   
     length 0.579358   
     axis -90 -45 -2.85299e-015   XYZ
    dof rx rz
    limits (-45.0 45.0)
           (-45.0 45.0)
  end
:hierarchy
  begin
    root lhipjoint rhipjoint lowerback
    lhipjoint lfemur
    lfemur ltibia
    ltibia lfoot
    lfoot ltoes
    rhipjoint rfemur
    rfemur rtibia
    rtibia rfoot
    rfoot rtoes
    lowerback upperback
    upperback thorax
    thorax lowerneck lclavicle rclavicle
    lowerneck upperneck
    upperneck head
    lclavicle lhumerus
    lhumerus lradius
    lradius lwrist
    lwrist lhand lthumb
    lhand lfingers
    rclavicle rhumerus
    rhumerus rradius
    rradius rwrist
    rwrist rhand rthumb
    rhand rfingers
  end

#!OML:ASF H:\IndianDance\Patient Classification 1\Patient 1\Session 1\dancer.ASF
:FULLY-SPECIFIED
:DEGREES
258
root 12.4618 15.1629 -0.339971 -173.701 -4.97581 -175.414
lowerback 2.20696 6.78537 5.73763
upperback -7.86658 9.10497 1.52859
thorax -8.91353 3.86029 -2.34024
lowerneck -14.4914 12.5739 8.30288
upperneck 21.9141 12.8684 8.49407
head 9.33211 7.43192 3.15948
rclavicle -2.5345e-015 -2.38542e-015
rhumerus -48.0348 67.3739 -64.893
rradius 108.82
rwrist -0.631067
rhand -49.9008 56.194
rfingers 7.12502
rthumb -22.4939 27.4841
lclavicle -2.5345e-015 -2.38542e-015
lhumerus 29.3763 21.7191 10.793
lradius 47.1425
lwrist 28.3141
lhand -40.1106 59.2033
lfingers 7.12502
lthumb -13.0744 448.773
rfemur -20.9088 -33.2829 28.8751
rtibia 58.7977
rfoot -1.53173 14.2551
rtoes -4.87244
lfemur -32.7351 23.1532 -35.6673
ltibia 48.8966
lfoot -0.990931 -18.6875
ltoes 10.2778
259
root 12.3933 15.1521 -0.292118 -173.691 -5.01844 -175.241
lowerback 2.42232 6.75854 5.80919
upperback -7.82841 9.10143 1.60373
thorax -9.00107 3.85426 -2.32497
lowerneck -14.5245 12.5779 8.4644
upperneck 21.7932 12.9158 8.20964
head 9.32792 7.43743 3.0462
rclavicle 7.54885e-014 4.21423e-014
rhumerus -47.3628 67.4725 -64.21
rradius 108.9
rwrist -0.533996
rhand -49.9219 56.2104
rfingers 7.12502
rthumb -22.5141 27.5029
lclavicle 7.54885e-014 4.21423e-014
lhumerus 29.5991 21.8123 10.4842
lradius 46.4988
lwrist 27.626
lhand -39.5904 59.2692
lfingers 7.12502
lthumb -12.5729 448.871
rfemur -20.7067 -32.7992 29.1876
rtibia 58.2357
rfoot -3.44761 13.2368
rtoes -6.61775
lfemur -33.662 23.3483 -35.036
ltibia 50.1904
lfoot -0.652408 -21.1494
ltoes 0.534694
260
root 12.3265 15.1437 -0.245804 -173.682 -5.05136 -175.064
lowerback 2.63535 6.72536 5.80919
upperback -7.79203 9.08533 1.69417
thorax -9.10341 3.84714 -2.25491
lowerneck -14.608 12.5925 8.41989
upperneck 21.6719 12.9573 8.18707
head 9.29731 7.45244 3.04906
rclavicle 6.03808e-014 2.10712e-014
rhumerus -46.6117 67.5823 -63.4215
rradius 108.999
rwrist -0.416099
rhand -49.9409 56.3279
rfingers 7.12502
rthumb -22.5324 27.6227
lclavicle 6.03808e-014 2.10712e-014
lhumerus 29.9774 22.0533 10.4924
lradius 45.7262
lwrist 26.5435
lhand -39.7794 58.6796
lfingers 7.12502
lthumb -12.7551 448.27
rfemur -20.6903 -32.3431 29.4979
rtibia 57.8699
rfoot -4.52053 12.1915
rtoes -5.94175
lfemur -34.5872 23.4289 -34.282
ltibia 51.4907
lfoot 0.951186 -23.4741
ltoes -4.21536
261
root 12.2539 15.1384 -0.206697 -173.714 -5.02185 -174.9
lowerback 2.79007 6.73737 5.8632
upperback -7.73338 9.12702 1.75721
thorax -9.13 3.86787 -2.23739
lowerneck -14.5771 12.5818 8.39903
upperneck 21.4642 12.9756 8.16069
head 9.21831 7.45481 3.03084
rclavicle -2.68359e-015 -2.14687e-014
rhumerus -45.9959 67.6259 -62.7554
rradius 109.061
rwrist -0.306406
rhand -49.8737 56.4374
rfingers 7.12502
rthumb -22.4678 27.7244
lclavicle -2.68359e-015 -2.14687e-014
lhumerus 30.2357 22.1083 10.0586
lradius 45.0309
lwrist 25.9038
lhand -39.9715 58.1691
lfingers 7.12502
lthumb -12.9403 447.748
rfemur -20.6879 -31.9676 29.6449
rtibia 57.668
rfoot -5.2048 11.2323
rtoes -3.89594
lfemur -35.3438 23.4909 -33.4389
ltibia 52.7611
lfoot 2.1999 -24.9344
ltoes -5.24669
262
root 12.1847 15.1268 -0.1656 -173.696 -5.05859 -174.747
lowerback 2.95174 6.69759 5.85791
upperback -7.7097 9.09453 1.80609
thorax -9.21091 3.8523 -2.20052
lowerneck -14.6048 12.5956 8.46397
upperneck 21.3409 13.0068 8.07529
head 9.19106 7.4648 2.99322
rclavicle -4.27387e-015 -9.54166e-015
rhumerus -45.2961 67.7043 -62.1064
rradius 109.1
rwrist -0.208157
rhand -49.9707 56.5743
rfingers 7.12502
rthumb -22.5609 27.8725
lclavicle -4.27387e-015 -9.54166e-015
lhumerus 30.5335 22.0356 9.29687
lradius 44.0602
lwrist 25.3076
lhand -40.391 57.623
lfingers 7.12502
lthumb -13.3447 447.176
rfemur -20.8188 -31.8422 29.8859
rtibia 57.5432
rfoot -6.14647 10.2462
rtoes -5.14045
lfemur -36.1219 23.2976 -32.5405
ltibia 54.0504
lfoot 1.24953 -25.6078
ltoes -2.2284
263
root 12.1106 15.1201 -0.13077 -173.722 -4.9839 -174.882
lowerback 3.11158 6.63295 5.5722
upperback -7.65167 9.01075 1.788
thorax -9.28556 3.83599 -2.07966
lowerneck -14.4899 12.6472 8.58128
upperneck 21.0828 13.0984 8.00291
head 9.09435 7.50428 2.94219
rclavicle 1.01678e-013 3.33958e-014
rhumerus -44.427 67.8948 -61.4095
rradius 109.102
rwrist -0.197063
rhand -50.0223 56.868
rfingers 7.12502
rthumb -22.6105 28.1722
lclavicle 1.01678e-013 3.33958e-014
lhumerus 31.2051 22.6358 10.3283
lradius 43.095
lwrist 22.8144
lhand -40.5129 56.8112
lfingers 7.12502
lthumb -13.4622 446.356
rfemur -20.8186 -31.7173 29.6183
rtibia 57.4763
rfoot -6.90408 9.52087
rtoes -5.14001
lfemur -36.6377 22.9712 -31.7982
ltibia 55.2553
lfoot -2.68557 -25.2829
ltoes -6.35891
264
root 12.0375 15.1066 -0.0941038 -173.77 -5.00561 -174.829
lowerback 3.30786 6.58252 5.48597
upperback -7.62324 8.96162 1.81002
thorax -9.38993 3.81819 -2.03037
lowerneck -14.3797 12.65 8.57956
upperneck 20.8724 13.1259 8.0178
head 8.99977 7.51414 2.93013
rclavicle -7.29043e-014 -5.12864e-014
rhumerus -43.8176 67.9818 -60.8753
rradius 109.103
rwrist -0.142607
rhand -49.9695 56.9961
rfingers 7.12502
rthumb -22.5598 28.2942
lclavicle -7.29043e-014 -5.12864e-014
lhumerus 31.7056 23.0331 10.7504
lradius 42.2812
lwrist 20.8699
lhand -40.4998 56.2579
lfingers 7.12502
lthumb -13.4495 445.804
rfemur -20.8502 -31.5386 29.5677
rtibia 57.419
rfoot -7.63549 8.81496
rtoes -6.08879
lfemur -37.086 22.4442 -30.7317
ltibia 56.4163
lfoot -7.47101 -22.9668
ltoes -12.7301
265
root 11.9616 15.1011 -0.0632272 -173.816 -4.92081 -174.968
lowerback 3.52925 6.53019 5.1324
upperback -7.62655 8.89192 1.85267
thorax -9.58845 3.80651 -1.82124
lowerneck -14.2069 12.672 8.56156
upperneck 20.741 13.1939 8.00613
head 8.92179 7.53966 2.91641
rclavicle -2.22142e-014 -3.26007e-014
rhumerus -43.3041 68.2161 -60.4025
rradius 109.142
rwrist -0.0843094
rhand -49.9582 57.0336
rfingers 7.12502
rthumb -22.549 28.3304
lclavicle -2.22142e-014 -3.26007e-014
lhumerus 31.1799 22.4255 8.65647
lradius 41.8004
lwrist 21.4951
lhand -41.1212 56.2637
lfingers 7.12502
lthumb -14.0484 445.769
rfemur -20.8151 -31.3732 29.1737
rtibia 57.3775
rfoot -8.24856 8.32091
rtoes -7.07005
lfemur -37.3411 21.7977 -29.7196
ltibia 57.3999
lfoot -11.5129 -19.1123
ltoes -17.9105
266
root 11.8854 15.0945 -0.0322862 -173.886 -4.86866 -174.963
lowerback 3.68167 6.51552 5.0663
upperback -7.5603 8.88689 1.82346
thorax -9.61029 3.8134 -1.83204
lowerneck -14.216 12.6771 8.53619
upperneck 20.5887 13.1919 8.09965
head 8.86203 7.54367 2.94163
rclavicle 1.69961e-014 9.14409e-015
rhumerus -42.6399 68.1384 -59.8467
rradius 109.105
rwrist 0.0184244
rhand -50.0161 57.3666
rfingers 7.12502
rthumb -22.6046 28.6702
lclavicle 1.69961e-014 9.14409e-015
lhumerus 31.729 22.7734 8.87548
lradius 41.0362
lwrist 20.0717
lhand -40.2777 55.9917
lfingers 7.12502
lthumb -13.2355 445.552
rfemur -20.779 -31.068 28.9318
rtibia 57.3273
rfoot -8.83295 7.84865
rtoes -8.31919
lfemur -37.5249 21.081 -28.516
ltibia 58.2376
lfoot -14.4981 -14.3515
ltoes -22.4842
